<svg xmlns="http://www.w3.org/2000/svg" width="26.494" height="26.494" viewBox="0 0 26.494 26.494"><defs><style>.a{fill:#f7fbff;}.b{fill:#007fff;}.c,.d{stroke:none;}.d{fill:#007fff;}</style></defs><g transform="translate(-240.753 -19.605)"><g class="a" transform="translate(240.753 19.605)"><path class="c" d="M 13.2470703125 25.994140625 C 9.84221076965332 25.994140625 6.641140460968018 24.66821098327637 4.233530521392822 22.26061058044434 C 1.82593035697937 19.85300064086914 0.5000002980232239 16.65192985534668 0.5000002980232239 13.2470703125 C 0.5000002980232239 9.84221076965332 1.82593035697937 6.641140460968018 4.233530521392822 4.233530521392822 C 6.641140460968018 1.82593035697937 9.84221076965332 0.5000002980232239 13.2470703125 0.5000002980232239 C 16.65192985534668 0.5000002980232239 19.85300064086914 1.82593035697937 22.26061058044434 4.233530521392822 C 24.66821098327637 6.641140460968018 25.994140625 9.84221076965332 25.994140625 13.2470703125 C 25.994140625 16.65192985534668 24.66821098327637 19.85300064086914 22.26061058044434 22.26061058044434 C 19.85300064086914 24.66821098327637 16.65192985534668 25.994140625 13.2470703125 25.994140625 Z"/><path class="d" d="M 13.2470703125 1 C 9.975759506225586 1 6.900249481201172 2.273920059204102 4.587089538574219 4.587089538574219 C 2.273920059204102 6.900249481201172 1 9.975759506225586 1 13.2470703125 C 1 16.51837921142578 2.273920059204102 19.59389114379883 4.587089538574219 21.90705108642578 C 6.900249481201172 24.2202205657959 9.975759506225586 25.494140625 13.2470703125 25.494140625 C 16.51837921142578 25.494140625 19.59389114379883 24.2202205657959 21.90705108642578 21.90705108642578 C 24.2202205657959 19.59389114379883 25.494140625 16.51837921142578 25.494140625 13.2470703125 C 25.494140625 9.975759506225586 24.2202205657959 6.900249481201172 21.90705108642578 4.587089538574219 C 19.59389114379883 2.273920059204102 16.51837921142578 1 13.2470703125 1 M 13.2470703125 0 C 20.5632209777832 0 26.494140625 5.930919647216797 26.494140625 13.2470703125 C 26.494140625 20.5632209777832 20.5632209777832 26.494140625 13.2470703125 26.494140625 C 5.930919647216797 26.494140625 0 20.5632209777832 0 13.2470703125 C 0 5.930919647216797 5.930919647216797 0 13.2470703125 0 Z"/></g><g transform="translate(251.056 29.909)"><rect class="b" width="1.472" height="5.888" transform="translate(2.208 0)"/><rect class="b" width="1.472" height="5.888" transform="translate(5.888 2.208) rotate(90)"/></g></g></svg>