<svg xmlns="http://www.w3.org/2000/svg" xmlns:xlink="http://www.w3.org/1999/xlink" width="46" height="46" viewBox="0 0 46 46"><defs><style>.a,.g{fill:none;}.a,.b{stroke:#a5a5a5;}.b{fill:#fff;}.c{clip-path:url(#e);}.d{fill:#dbdbdb;}.e{fill:#e51e2b;}.f{stroke:none;}.h{filter:url(#f);}.i{filter:url(#c);}.j{filter:url(#a);}</style><filter id="a" x="0" y="0" width="46" height="46" filterUnits="userSpaceOnUse"><feOffset dy="3" input="SourceAlpha"/><feGaussianBlur stdDeviation="3" result="b"/><feFlood flood-opacity="0.161"/><feComposite operator="in" in2="b"/><feComposite in="SourceGraphic"/></filter><filter id="c" x="0" y="0" width="46" height="46" filterUnits="userSpaceOnUse"><feOffset dy="3" input="SourceAlpha"/><feGaussianBlur stdDeviation="3" result="d"/><feFlood flood-opacity="0.161"/><feComposite operator="in" in2="d"/><feComposite in="SourceGraphic"/></filter><clipPath id="e"><g class="j" transform="matrix(1, 0, 0, 1, 0, 0)"><circle class="a" cx="14" cy="14" r="14" transform="translate(33 199)"/></g></clipPath><filter id="f" x="0" y="0" width="46" height="46" filterUnits="userSpaceOnUse"><feOffset dy="3" input="SourceAlpha"/><feGaussianBlur stdDeviation="3" result="g"/><feFlood flood-color="#b5b5b5" flood-opacity="0.161"/><feComposite operator="in" in2="g"/><feComposite in="SourceGraphic"/></filter></defs><g transform="translate(-188 -223)"><g transform="translate(33 5)"><g transform="translate(155 218)"><rect width="3" height="8" transform="translate(21 31)"/><g class="i" transform="matrix(1, 0, 0, 1, 0, 0)"><g class="b" transform="translate(9 6)"><circle class="f" cx="14" cy="14" r="14"/><circle class="g" cx="14" cy="14" r="13.5"/></g></g><g class="c" transform="translate(-24 -193)"><rect class="d" width="36" height="7" transform="translate(30 223)"/></g><g class="h" transform="matrix(1, 0, 0, 1, 0, 0)"><circle class="e" cx="14" cy="14" r="14" transform="translate(9 6)"/></g></g></g></g></svg>