<svg xmlns="http://www.w3.org/2000/svg" width="35.4" height="32.11" viewBox="0 0 35.4 32.11"><defs><style>.a{fill:#bbbdbf;}.a,.k{mix-blend-mode:multiply;isolation:isolate;}.b{fill:#d64f3c;}.c{fill:#fff;}.d{fill:#ed8063;}.e{fill:#fc6b74;}.f{fill:#ffa5ab;}.g{fill:#7bc43b;}.h{fill:#e51e2b;}.i{fill:#faa5ab;}.j{fill:#808184;}.k{fill:#909295;}</style></defs><g transform="translate(7.308 -0.951) rotate(17)"><g transform="translate(0 6.369)"><path class="a" d="M97.073,236.955l4.888-2.822A22.486,22.486,0,0,0,99.422,232L76.445,218.741a.345.345,0,0,0-.256,0l-4.6,2.654v-.739l-.939.547-.011,3.624,16.372,9.44h1.945l.866.489-.977.57,3.4,1.976A24.84,24.84,0,0,0,97.073,236.955Z" transform="translate(-70.642 -218.716)"/></g><g transform="translate(3.268 8.938)"><g transform="translate(1.991 1.16)"><g transform="translate(0)"><g transform="translate(0.257)"><path class="b" d="M212.9,242.114l1.447,2.421s.458-.268.638-.368a.7.7,0,0,0,.3-.65,2.205,2.205,0,0,0-1-1.728.675.675,0,0,0-.746-.044Z" transform="translate(-212.864 -241.612)"/><path d="M214.143,244.369a.04.04,0,0,0,.021-.006s.459-.269.637-.368a.735.735,0,0,0,.32-.686,2.255,2.255,0,0,0-1.019-1.764.719.719,0,0,0-.79-.042l-.638.367a.041.041,0,0,0-.015.057l1.447,2.421A.041.041,0,0,0,214.143,244.369Zm-.506-2.882a.867.867,0,0,1,.425.13,2.164,2.164,0,0,1,.977,1.693.658.658,0,0,1-.278.614c-.149.083-.493.283-.6.348l-1.405-2.351.6-.348A.471.471,0,0,1,213.637,241.487Z" transform="translate(-212.655 -241.405)"/></g><g transform="translate(0.404 0.893)"><path d="M219.287,247.514a1.313,1.313,0,0,0,.594,1.029c.328.189.594.036.594-.343a1.314,1.314,0,0,0-.594-1.029C219.553,246.981,219.287,247.135,219.287,247.514Z" transform="translate(-219.246 -247.048)"/><path d="M219.939,248.456a.347.347,0,0,0,.175-.045.456.456,0,0,0,.194-.42,1.361,1.361,0,0,0-.615-1.065.4.4,0,0,0-.656.379,1.361,1.361,0,0,0,.615,1.065A.579.579,0,0,0,219.939,248.456Zm-.531-1.535a.5.5,0,0,1,.245.076,1.269,1.269,0,0,1,.573.994.322.322,0,0,1-.532.307,1.27,1.27,0,0,1-.574-.994.379.379,0,0,1,.154-.349A.264.264,0,0,1,219.408,246.921Z" transform="translate(-219.038 -246.839)"/></g><g transform="translate(0.554 0.767)"><path class="c" d="M218.374,246.748a1.313,1.313,0,0,0,.594,1.029c.328.19.594.036.594-.343a1.313,1.313,0,0,0-.594-1.029C218.64,246.216,218.374,246.37,218.374,246.748Z" transform="translate(-218.333 -246.283)"/><path d="M219.025,247.691a.347.347,0,0,0,.175-.045.456.456,0,0,0,.195-.42,1.361,1.361,0,0,0-.615-1.065.4.4,0,0,0-.656.379,1.361,1.361,0,0,0,.615,1.065A.581.581,0,0,0,219.025,247.691Zm-.531-1.535a.5.5,0,0,1,.245.076,1.27,1.27,0,0,1,.574.994.322.322,0,0,1-.533.307,1.269,1.269,0,0,1-.574-.993.379.379,0,0,1,.154-.349A.266.266,0,0,1,218.494,246.155Z" transform="translate(-218.124 -246.074)"/></g><g transform="translate(0 0.371)"><path d="M217.828,244.053a2.206,2.206,0,0,1,1,1.729c0,.636-.447.894-1,.576a2.206,2.206,0,0,1-1-1.729C216.83,243.993,217.277,243.735,217.828,244.053Zm0,1.839c.328.189.594.036.594-.343a1.314,1.314,0,0,0-.594-1.029c-.328-.189-.594-.036-.594.343A1.313,1.313,0,0,0,217.828,245.892Z" transform="translate(-216.789 -243.875)"/><path d="M218.066,246.325a.554.554,0,0,0,.28-.072.74.74,0,0,0,.313-.682,2.254,2.254,0,0,0-1.018-1.764.648.648,0,0,0-1.06.612,2.255,2.255,0,0,0,1.019,1.764A.947.947,0,0,0,218.066,246.325Zm-.891-2.578a.867.867,0,0,1,.425.131h0a2.163,2.163,0,0,1,.977,1.693.568.568,0,0,1-.936.541,2.163,2.163,0,0,1-.977-1.693.663.663,0,0,1,.272-.611A.473.473,0,0,1,217.174,243.747Zm.711,2.057a.347.347,0,0,0,.175-.045.456.456,0,0,0,.194-.42,1.361,1.361,0,0,0-.615-1.065.4.4,0,0,0-.656.379,1.361,1.361,0,0,0,.615,1.065h0A.581.581,0,0,0,217.885,245.8Zm-.531-1.535a.5.5,0,0,1,.245.076,1.269,1.269,0,0,1,.573.994.322.322,0,0,1-.532.307,1.27,1.27,0,0,1-.574-.994.379.379,0,0,1,.154-.349A.264.264,0,0,1,217.355,244.268Z" transform="translate(-216.581 -243.665)"/></g><path d="M220.831,249.633a.42.42,0,0,0,.19.33c.105.061.19.012.19-.11a.421.421,0,0,0-.19-.33C220.916,249.462,220.831,249.511,220.831,249.633Z" transform="translate(-219.832 -248.167)"/></g><g transform="translate(2.499 1.443)"><g transform="translate(0.257)"><path class="b" d="M197.7,250.894l1.447,2.421s.458-.268.638-.368a.7.7,0,0,0,.3-.65,2.206,2.206,0,0,0-1-1.729.676.676,0,0,0-.746-.044Z" transform="translate(-197.659 -250.392)"/><path d="M198.938,253.149a.041.041,0,0,0,.021-.006s.459-.269.637-.368a.734.734,0,0,0,.32-.686,2.255,2.255,0,0,0-1.019-1.764.718.718,0,0,0-.79-.042l-.638.367a.041.041,0,0,0-.015.057l1.447,2.421A.041.041,0,0,0,198.938,253.149Zm-.506-2.882a.864.864,0,0,1,.425.13,2.164,2.164,0,0,1,.977,1.693.658.658,0,0,1-.278.614c-.149.083-.493.283-.6.348l-1.405-2.351.6-.348A.47.47,0,0,1,198.432,250.267Z" transform="translate(-197.45 -250.184)"/></g><g transform="translate(0.404 0.893)"><path d="M204.083,256.294a1.313,1.313,0,0,0,.594,1.029c.328.19.594.036.594-.343a1.313,1.313,0,0,0-.594-1.029C204.349,255.762,204.083,255.915,204.083,256.294Z" transform="translate(-204.042 -255.829)"/><path d="M204.734,257.236a.346.346,0,0,0,.175-.045.456.456,0,0,0,.194-.42,1.361,1.361,0,0,0-.615-1.065.4.4,0,0,0-.656.379,1.361,1.361,0,0,0,.615,1.065A.581.581,0,0,0,204.734,257.236ZM204.2,255.7a.5.5,0,0,1,.245.076,1.27,1.27,0,0,1,.573.994.322.322,0,0,1-.532.307,1.269,1.269,0,0,1-.574-.993.379.379,0,0,1,.154-.349A.266.266,0,0,1,204.2,255.7Z" transform="translate(-203.833 -255.62)"/></g><g transform="translate(0.554 0.768)"><path class="c" d="M203.169,255.529a1.313,1.313,0,0,0,.594,1.029c.328.189.594.036.594-.343a1.314,1.314,0,0,0-.594-1.029C203.435,255,203.169,255.15,203.169,255.529Z" transform="translate(-203.128 -255.063)"/><path d="M203.82,256.471a.345.345,0,0,0,.175-.045.456.456,0,0,0,.195-.42,1.36,1.36,0,0,0-.615-1.065.4.4,0,0,0-.656.379,1.36,1.36,0,0,0,.615,1.065A.58.58,0,0,0,203.82,256.471Zm-.531-1.535a.5.5,0,0,1,.245.076,1.27,1.27,0,0,1,.574.993.322.322,0,0,1-.533.307,1.269,1.269,0,0,1-.574-.993.379.379,0,0,1,.154-.349A.264.264,0,0,1,203.289,254.936Z" transform="translate(-202.919 -254.854)"/></g><g transform="translate(0 0.372)"><path d="M202.623,252.834a2.206,2.206,0,0,1,1,1.728c0,.637-.447.894-1,.576a2.206,2.206,0,0,1-1-1.729C201.625,252.774,202.072,252.516,202.623,252.834Zm0,1.838c.328.189.594.036.594-.343a1.313,1.313,0,0,0-.594-1.029c-.328-.19-.594-.036-.594.343A1.313,1.313,0,0,0,202.623,254.672Z" transform="translate(-201.584 -252.656)"/><path d="M202.861,255.105a.553.553,0,0,0,.28-.072.739.739,0,0,0,.313-.682,2.255,2.255,0,0,0-1.018-1.764h0a.648.648,0,0,0-1.06.612,2.255,2.255,0,0,0,1.019,1.764A.948.948,0,0,0,202.861,255.105Zm-.466-2.447h0a2.164,2.164,0,0,1,.977,1.693.568.568,0,0,1-.936.54,2.163,2.163,0,0,1-.978-1.693.569.569,0,0,1,.937-.541Zm.286,1.925a.346.346,0,0,0,.175-.045.456.456,0,0,0,.194-.42,1.361,1.361,0,0,0-.615-1.065.4.4,0,0,0-.656.379,1.361,1.361,0,0,0,.615,1.065h0A.581.581,0,0,0,202.681,254.584Zm-.531-1.535a.5.5,0,0,1,.245.076,1.27,1.27,0,0,1,.573.994.322.322,0,0,1-.532.307h0a1.269,1.269,0,0,1-.574-.993.379.379,0,0,1,.154-.349A.266.266,0,0,1,202.15,253.049Z" transform="translate(-201.376 -252.445)"/></g><path d="M205.626,258.413a.421.421,0,0,0,.19.33c.105.061.19.012.19-.11a.421.421,0,0,0-.19-.33C205.711,258.243,205.626,258.292,205.626,258.413Z" transform="translate(-204.627 -256.947)"/></g><g transform="translate(4.999 2.873)"><g transform="translate(0.257)"><path class="b" d="M182.487,259.592l1.447,2.421s.458-.268.638-.368a.7.7,0,0,0,.3-.65,2.206,2.206,0,0,0-1-1.728.675.675,0,0,0-.746-.044Z" transform="translate(-182.446 -259.089)"/><path d="M183.725,261.847a.041.041,0,0,0,.021-.006s.459-.269.637-.367a.735.735,0,0,0,.32-.686,2.255,2.255,0,0,0-1.019-1.764.719.719,0,0,0-.79-.042l-.638.367a.041.041,0,0,0-.015.057l1.447,2.422A.041.041,0,0,0,183.725,261.847Zm-.506-2.882a.863.863,0,0,1,.425.13,2.164,2.164,0,0,1,.977,1.693.658.658,0,0,1-.278.614c-.149.083-.493.283-.6.348l-1.405-2.351.6-.348A.471.471,0,0,1,183.219,258.965Z" transform="translate(-182.237 -258.882)"/></g><g transform="translate(0.404 0.893)"><path d="M188.87,264.991a1.313,1.313,0,0,0,.594,1.029c.328.19.594.036.594-.343a1.313,1.313,0,0,0-.594-1.029C189.136,264.459,188.87,264.612,188.87,264.991Z" transform="translate(-188.829 -264.526)"/><path d="M189.521,265.934a.346.346,0,0,0,.175-.045.456.456,0,0,0,.195-.42,1.361,1.361,0,0,0-.615-1.065.4.4,0,0,0-.656.379,1.361,1.361,0,0,0,.615,1.065A.58.58,0,0,0,189.521,265.934Zm-.531-1.535a.5.5,0,0,1,.245.076,1.27,1.27,0,0,1,.574.994.322.322,0,0,1-.533.307,1.269,1.269,0,0,1-.574-.993.379.379,0,0,1,.154-.349A.266.266,0,0,1,188.99,264.4Z" transform="translate(-188.62 -264.317)"/></g><g transform="translate(0.554 0.767)"><path class="c" d="M187.957,264.226a1.313,1.313,0,0,0,.594,1.029c.328.19.594.036.594-.343a1.313,1.313,0,0,0-.594-1.029C188.223,263.694,187.957,263.847,187.957,264.226Z" transform="translate(-187.916 -263.761)"/><path d="M188.608,265.168a.346.346,0,0,0,.175-.045.456.456,0,0,0,.195-.42,1.36,1.36,0,0,0-.615-1.065.4.4,0,0,0-.656.379,1.361,1.361,0,0,0,.615,1.065A.581.581,0,0,0,188.608,265.168Zm-.531-1.535a.5.5,0,0,1,.245.076,1.269,1.269,0,0,1,.574.993.322.322,0,0,1-.533.308,1.27,1.27,0,0,1-.573-.994.379.379,0,0,1,.153-.349A.266.266,0,0,1,188.077,263.633Z" transform="translate(-187.707 -263.55)"/></g><g transform="translate(0 0.372)"><path d="M187.411,261.531a2.206,2.206,0,0,1,1,1.729c0,.636-.447.894-1,.576a2.206,2.206,0,0,1-1-1.729C186.413,261.471,186.86,261.213,187.411,261.531Zm0,1.838c.328.189.594.036.594-.343a1.313,1.313,0,0,0-.594-1.029c-.328-.19-.594-.036-.594.343A1.313,1.313,0,0,0,187.411,263.369Z" transform="translate(-186.372 -261.353)"/><path d="M187.648,263.8a.553.553,0,0,0,.28-.072.74.74,0,0,0,.313-.682,2.255,2.255,0,0,0-1.019-1.764h0a.648.648,0,0,0-1.06.612,2.254,2.254,0,0,0,1.019,1.764A.948.948,0,0,0,187.648,263.8Zm-.466-2.447a2.164,2.164,0,0,1,.977,1.693.568.568,0,0,1-.936.54,2.163,2.163,0,0,1-.977-1.693.568.568,0,0,1,.936-.541Zm.286,1.925a.345.345,0,0,0,.175-.045.456.456,0,0,0,.194-.42,1.36,1.36,0,0,0-.615-1.065.4.4,0,0,0-.656.379,1.361,1.361,0,0,0,.615,1.065h0A.579.579,0,0,0,187.467,263.281Zm-.531-1.535a.5.5,0,0,1,.245.076,1.27,1.27,0,0,1,.574.994.322.322,0,0,1-.533.307,1.269,1.269,0,0,1-.574-.993.379.379,0,0,1,.154-.349A.267.267,0,0,1,186.937,261.746Z" transform="translate(-186.163 -261.142)"/></g><path d="M190.414,267.111a.421.421,0,0,0,.19.33c.105.061.19.012.19-.11a.42.42,0,0,0-.19-.33C190.5,266.94,190.414,266.989,190.414,267.111Z" transform="translate(-189.415 -265.645)"/></g></g><g transform="translate(0)"><g transform="translate(1.441 0.882)"><path d="M183.9,239.967l6.755,3.9a3.151,3.151,0,0,1,.655,1.519l-.125-.044a2.863,2.863,0,0,0-.584-1.372l-6.65-3.839c-.071,0-.461.039-.584.7l-.125-.1C183.377,240,183.823,239.967,183.9,239.967Z" transform="translate(-183.2 -239.925)"/><path d="M191.1,245.217a.041.041,0,0,0,.041-.047,3.189,3.189,0,0,0-.665-1.539l-.011-.009-6.756-3.9a.027.027,0,0,0-.021-.005c-.092,0-.555.041-.7.8a.041.041,0,0,0,.015.04l.125.1a.041.041,0,0,0,.066-.024c.112-.6.443-.659.533-.664l6.633,3.83a2.83,2.83,0,0,1,.57,1.346.041.041,0,0,0,.027.032l.125.044Zm-.682-1.528a3.1,3.1,0,0,1,.63,1.425l-.036-.013a2.9,2.9,0,0,0-.589-1.368l-.011-.009-6.65-3.839a.109.109,0,0,0-.021-.005c-.079,0-.468.041-.61.665l-.053-.043c.129-.642.5-.7.6-.7Z" transform="translate(-182.991 -239.714)"/></g><g transform="translate(1.82 0.748)"><path d="M176.885,239.282l6.755,3.9a3.151,3.151,0,0,1,.655,1.519l1.09-.657-8.483-4.9-.3.223A.536.536,0,0,1,176.885,239.282Z" transform="translate(-176.567 -239.106)"/><path d="M184.087,244.534a.039.039,0,0,0,.021-.006l1.09-.657a.041.041,0,0,0,.02-.036.041.041,0,0,0-.021-.035l-8.483-4.9a.041.041,0,0,0-.045,0l-.3.223a.041.041,0,0,0,.047.067.5.5,0,0,1,.244-.082l6.739,3.892a3.11,3.11,0,0,1,.641,1.493.042.042,0,0,0,.023.031A.041.041,0,0,0,184.087,244.534Zm1.009-.7-.978.589a3.178,3.178,0,0,0-.655-1.479l-.011-.009-6.756-3.9a.041.041,0,0,0-.021-.005h0l-.041,0,.062-.047Z" transform="translate(-176.358 -238.897)"/></g><g transform="translate(1.566 1.047)"><path d="M227.038,241.143l-.306-.177c-.071,0-.461.039-.584.7Z" transform="translate(-226.107 -240.925)"/><path d="M225.939,241.5a.043.043,0,0,0,.021-.006l.89-.521a.041.041,0,0,0,0-.071l-.306-.177a.109.109,0,0,0-.021-.005c-.082,0-.5.044-.624.731a.041.041,0,0,0,.017.041A.041.041,0,0,0,225.939,241.5Zm.808-.562-.748.438c.126-.513.428-.569.514-.574Z" transform="translate(-225.898 -240.717)"/></g><g transform="translate(0)"><path d="M235.211,234.6l.282.163c-.364-.023-.792.092-.945.914l-.156-.125C234.562,234.636,235.118,234.6,235.211,234.6Z" transform="translate(-234.351 -234.554)"/><path d="M234.339,235.5l.014,0a.041.041,0,0,0,.026-.031c.155-.83.589-.9.9-.88a.041.041,0,0,0,.042-.029.041.041,0,0,0-.019-.048l-.281-.162a.041.041,0,0,0-.021-.005h0c-.113,0-.685.049-.86.985a.041.041,0,0,0,.015.04l.156.125A.041.041,0,0,0,234.339,235.5Zm.792-1c-.43.031-.7.32-.819.88l-.084-.067c.163-.822.642-.89.764-.893Z" transform="translate(-234.143 -234.346)"/></g><g transform="translate(0.156 0.16)"><path d="M233.385,235.571c-.364-.023-.792.092-.945.914l1.266-.728Z" transform="translate(-232.399 -235.528)"/><path d="M232.231,236.318a.04.04,0,0,0,.021-.006l1.266-.728a.041.041,0,0,0,0-.071l-.321-.185a.045.045,0,0,0-.018-.005c-.541-.033-.863.276-.988.947a.041.041,0,0,0,.017.041A.042.042,0,0,0,232.231,236.318Zm1.184-.77-1.125.647c.167-.738.574-.808.874-.792Z" transform="translate(-232.19 -235.32)"/></g></g></g><g transform="translate(12.848 13.738)"><g transform="translate(0)"><path d="M149.679,265.4l4.471,2.583a.589.589,0,0,1,.5-.594V267l-5.536-3.2Z" transform="translate(-149.077 -263.761)"/><path d="M153.942,267.817a.041.041,0,0,0,.041-.038.545.545,0,0,1,.465-.555.041.041,0,0,0,.039-.041v-.392a.041.041,0,0,0-.021-.036l-5.536-3.2a.041.041,0,0,0-.059.049l.561,1.6a.042.042,0,0,0,.018.022l4.471,2.583A.042.042,0,0,0,153.942,267.817Zm.462-.672a.618.618,0,0,0-.5.564l-4.4-2.544-.52-1.482,5.419,3.13Z" transform="translate(-148.868 -263.551)"/><g transform="translate(5.033 3.198)"><path d="M145.416,284.243a.589.589,0,0,1,.5-.593v-.392l.608.351Z" transform="translate(-145.375 -283.216)"/><path d="M145.208,284.074a.041.041,0,0,0,.02-.005l1.112-.635a.041.041,0,0,0,0-.071l-.608-.351a.041.041,0,0,0-.041,0,.041.041,0,0,0-.021.036v.355a.634.634,0,0,0-.5.628.041.041,0,0,0,.041.044Zm1.029-.676-.978.558a.524.524,0,0,1,.455-.476.041.041,0,0,0,.039-.041v-.321Z" transform="translate(-145.167 -283.006)"/></g></g><g transform="translate(0.169 0.366)"><g transform="translate(0)"><path class="d" d="M158.99,266.689v-.66l.292.167v.66l1.793,1.036v-.66l.345.2v.66l.637.368v1.336l-.254.131-3.624-2.092V266.5l.254-.132Zm.292.522v.736l1.836,1.064v-.736Zm2.5,1.416-.362-.209v.763l.362.209Zm-3.2-1.085.4.246V267l-.4-.246Z" transform="translate(-158.138 -265.988)"/><path d="M161.594,269.759a.043.043,0,0,0,.019,0l.254-.132a.041.041,0,0,0,.022-.036V268.25a.041.041,0,0,0-.021-.036l-.617-.356v-.636a.041.041,0,0,0-.021-.036l-.345-.2a.041.041,0,0,0-.061.036v.589l-1.711-.989v-.636a.041.041,0,0,0-.021-.036l-.292-.167a.041.041,0,0,0-.061.035v.589l-.5-.288a.041.041,0,0,0-.04,0l-.254.132a.041.041,0,0,0-.022.036v1.336a.041.041,0,0,0,.021.036l3.624,2.092A.039.039,0,0,0,161.594,269.759Zm.213-.2-.212.11-3.584-2.069v-1.288l.212-.11.538.312a.041.041,0,0,0,.062-.035v-.589l.21.12v.636a.041.041,0,0,0,.021.035l1.793,1.036a.041.041,0,0,0,.041,0,.041.041,0,0,0,.021-.036v-.589l.263.151v.636a.041.041,0,0,0,.021.036l.617.356Zm-.234-.338a.04.04,0,0,0,.021-.005.041.041,0,0,0,.021-.036v-.763a.041.041,0,0,0-.021-.036l-.362-.209a.041.041,0,0,0-.041,0,.041.041,0,0,0-.021.035v.763a.041.041,0,0,0,.021.036l.362.209A.04.04,0,0,0,161.573,269.223Zm-.041-.781v.668l-.28-.162v-.668Zm-.623.4a.042.042,0,0,0,.021-.005.041.041,0,0,0,.021-.036v-.737a.041.041,0,0,0-.021-.035l-1.836-1.064a.042.042,0,0,0-.041,0,.041.041,0,0,0-.021.036v.736a.041.041,0,0,0,.021.035l1.836,1.064A.043.043,0,0,0,160.909,268.844Zm-.041-.754v.641l-1.754-1.016v-.641Zm-2.093-.469a.04.04,0,0,0,.02-.005.041.041,0,0,0,.021-.036v-.794a.041.041,0,0,0-.02-.035l-.4-.246a.041.041,0,0,0-.063.035v.794a.041.041,0,0,0,.02.035l.4.246A.04.04,0,0,0,158.775,267.622Zm-.041-.812v.7l-.32-.2v-.7Z" transform="translate(-157.929 -265.78)"/></g><g transform="translate(0 0.176)"><path class="b" d="M160.361,267.759v-.66l.212.122v.66l1.926,1.112v-.66l.212.122v.66l.637.368v1.336l-3.624-2.092v-1.336Zm.212.367v.847l1.926,1.112v-.847Zm2.5,1.443-.362-.209v.847l.362.209Zm-3.2-1,.489.282V268l-.489-.282Z" transform="translate(-159.683 -267.058)"/><path d="M163.139,270.652a.04.04,0,0,0,.021-.005.041.041,0,0,0,.021-.036v-1.336a.041.041,0,0,0-.021-.035l-.617-.356v-.636a.041.041,0,0,0-.021-.036l-.212-.122a.041.041,0,0,0-.062.035v.589l-1.843-1.064v-.636a.041.041,0,0,0-.021-.036l-.212-.122a.041.041,0,0,0-.041,0,.041.041,0,0,0-.021.036v.589l-.576-.333a.041.041,0,0,0-.041,0,.041.041,0,0,0-.021.036v1.336a.041.041,0,0,0,.021.036l3.624,2.092A.04.04,0,0,0,163.139,270.652ZM163.1,269.3v1.242l-3.542-2.045v-1.241l.576.332a.041.041,0,0,0,.062-.036v-.589l.13.075v.636a.041.041,0,0,0,.021.036l1.926,1.112a.041.041,0,0,0,.041,0,.041.041,0,0,0,.021-.036V268.2l.13.075v.636a.041.041,0,0,0,.021.036Zm-.234.95a.04.04,0,0,0,.021-.005.041.041,0,0,0,.021-.036v-.847a.041.041,0,0,0-.021-.036l-.362-.209a.041.041,0,0,0-.062.036V270a.041.041,0,0,0,.021.036l.362.209A.04.04,0,0,0,162.864,270.248Zm-.041-.864v.752l-.28-.162v-.752Zm-.533.533a.04.04,0,0,0,.021-.006.041.041,0,0,0,.021-.035v-.847a.041.041,0,0,0-.021-.036l-1.926-1.112a.041.041,0,0,0-.041,0,.041.041,0,0,0-.021.036v.847a.042.042,0,0,0,.021.036l1.926,1.112A.04.04,0,0,0,162.29,269.917Zm-.041-.864v.752l-1.843-1.065v-.752Zm-2.1-.37a.041.041,0,0,0,.041-.041V267.8a.041.041,0,0,0-.021-.036l-.489-.282a.041.041,0,0,0-.041,0,.041.041,0,0,0-.021.036v.847a.041.041,0,0,0,.021.036l.489.282A.042.042,0,0,0,160.152,268.683Zm-.041-.864v.752l-.407-.235v-.752Z" transform="translate(-159.474 -266.849)"/></g></g></g><g transform="translate(17.995 17.437)"><g transform="translate(0.257)"><path class="b" d="M135.419,286.763l1.447,2.421s.458-.268.638-.368a.7.7,0,0,0,.3-.65,2.206,2.206,0,0,0-1-1.729.676.676,0,0,0-.746-.044Z" transform="translate(-135.378 -286.261)"/><path d="M136.657,289.018a.042.042,0,0,0,.021-.006s.459-.269.637-.368a.735.735,0,0,0,.32-.686,2.255,2.255,0,0,0-1.019-1.764.719.719,0,0,0-.79-.042l-.638.367a.04.04,0,0,0-.019.025.04.04,0,0,0,0,.031L136.622,289A.041.041,0,0,0,136.657,289.018Zm-.506-2.882a.865.865,0,0,1,.425.13,2.163,2.163,0,0,1,.977,1.693.658.658,0,0,1-.278.614c-.149.083-.493.283-.6.348l-1.405-2.351.6-.348A.47.47,0,0,1,136.151,286.136Z" transform="translate(-135.169 -286.054)"/></g><g transform="translate(0.404 0.893)"><path d="M141.8,292.163a1.313,1.313,0,0,0,.594,1.029c.328.189.594.036.594-.343a1.313,1.313,0,0,0-.594-1.029C142.068,291.63,141.8,291.784,141.8,292.163Z" transform="translate(-141.761 -291.697)"/><path d="M142.452,293.1a.349.349,0,0,0,.175-.045.457.457,0,0,0,.194-.42,1.36,1.36,0,0,0-.615-1.065.4.4,0,0,0-.656.379,1.361,1.361,0,0,0,.615,1.065A.583.583,0,0,0,142.452,293.1Zm-.531-1.535a.5.5,0,0,1,.245.076,1.269,1.269,0,0,1,.574.993.322.322,0,0,1-.533.308,1.27,1.27,0,0,1-.573-.994.38.38,0,0,1,.153-.349A.267.267,0,0,1,141.922,291.569Z" transform="translate(-141.552 -291.487)"/></g><g transform="translate(0.554 0.767)"><path class="c" d="M140.888,291.4a1.313,1.313,0,0,0,.594,1.029c.328.19.594.036.594-.343a1.314,1.314,0,0,0-.594-1.029C141.154,290.865,140.888,291.018,140.888,291.4Z" transform="translate(-140.847 -290.932)"/><path d="M141.539,292.34a.346.346,0,0,0,.175-.045.456.456,0,0,0,.195-.42,1.361,1.361,0,0,0-.615-1.065.4.4,0,0,0-.656.379,1.361,1.361,0,0,0,.615,1.065A.578.578,0,0,0,141.539,292.34Zm-.531-1.535a.5.5,0,0,1,.245.076,1.27,1.27,0,0,1,.574.993.322.322,0,0,1-.533.307,1.269,1.269,0,0,1-.574-.994.379.379,0,0,1,.153-.349A.265.265,0,0,1,141.008,290.8Z" transform="translate(-140.638 -290.723)"/></g><g transform="translate(0 0.371)"><path d="M140.343,288.7a2.206,2.206,0,0,1,1,1.729c0,.636-.447.894-1,.576a2.206,2.206,0,0,1-1-1.729C139.345,288.642,139.792,288.384,140.343,288.7Zm0,1.839c.328.189.594.036.594-.343a1.313,1.313,0,0,0-.594-1.029c-.328-.189-.594-.036-.594.343A1.313,1.313,0,0,0,140.343,290.541Z" transform="translate(-139.304 -288.524)"/><path d="M140.579,290.973a.555.555,0,0,0,.28-.072.74.74,0,0,0,.313-.682,2.254,2.254,0,0,0-1.019-1.764.648.648,0,0,0-1.059.612,2.255,2.255,0,0,0,1.018,1.764A.952.952,0,0,0,140.579,290.973Zm-.891-2.578a.866.866,0,0,1,.425.131h0a2.163,2.163,0,0,1,.978,1.693.569.569,0,0,1-.937.541,2.164,2.164,0,0,1-.977-1.693.663.663,0,0,1,.272-.61A.474.474,0,0,1,139.687,288.4Zm.711,2.056a.349.349,0,0,0,.175-.045.457.457,0,0,0,.194-.42,1.36,1.36,0,0,0-.615-1.065.4.4,0,0,0-.656.379,1.361,1.361,0,0,0,.615,1.065h0A.581.581,0,0,0,140.4,290.452Zm-.531-1.535a.5.5,0,0,1,.245.076,1.269,1.269,0,0,1,.574.993.322.322,0,0,1-.533.308,1.27,1.27,0,0,1-.573-.994.38.38,0,0,1,.153-.349A.267.267,0,0,1,139.868,288.917Z" transform="translate(-139.094 -288.313)"/></g><path d="M143.345,294.282a.42.42,0,0,0,.19.33c.105.061.19.012.19-.11a.421.421,0,0,0-.19-.33C143.43,294.111,143.345,294.16,143.345,294.282Z" transform="translate(-142.346 -292.816)"/></g><g transform="translate(20.267 18.785)"><path d="M121.226,296.213s-.434.186-.434,1.305l-2.575-1.487a.466.466,0,0,1-.223-.416v-.942s.011-.251.212-.135,2.713,1.6,2.713,1.6S121.135,296,121.226,296.213Z" transform="translate(-117.953 -294.466)"/><path d="M120.583,297.35a.04.04,0,0,0,.021-.005.041.041,0,0,0,.021-.036c0-1.071.406-1.266.41-1.268a.041.041,0,0,0,.021-.054.219.219,0,0,0-.138-.136.292.292,0,0,0-.207.033c-.242-.143-2.5-1.481-2.693-1.591a.179.179,0,0,0-.18-.02.24.24,0,0,0-.094.189v.944a.509.509,0,0,0,.243.452l2.575,1.487A.04.04,0,0,0,120.583,297.35Zm.38-1.362c-.108.073-.406.354-.421,1.25l-2.514-1.452a.428.428,0,0,1-.2-.38v-.942c0-.023.013-.1.051-.118s.069,0,.1.019c.2.115,2.688,1.588,2.713,1.6a.041.041,0,0,0,.044,0,.225.225,0,0,1,.162-.036A.121.121,0,0,1,120.963,295.988Z" transform="translate(-117.744 -294.257)"/></g><g transform="translate(20.33 18.555)"><path class="d" d="M117.869,295.041l.541-.308-.512-.3v-1.19l-1.27.733-1.516-.875-.406.243a.137.137,0,0,1,.142.018c.2.116,2.713,1.6,2.713,1.6S117.778,294.825,117.869,295.041Z" transform="translate(-114.659 -293.065)"/><path d="M117.662,294.874a.042.042,0,0,0,.02-.005l.541-.308a.041.041,0,0,0,.021-.035.041.041,0,0,0-.021-.036l-.491-.284V293.04a.042.042,0,0,0-.021-.036.041.041,0,0,0-.041,0l-1.249.721-1.5-.863a.041.041,0,0,0-.042,0c-.209.124-.32.191-.378.23a.131.131,0,0,0-.028.012l0,.006c-.038.029-.033.038-.023.054a.047.047,0,0,0,.057.013h.005c.028-.017.07,0,.1.018.2.115,2.688,1.588,2.713,1.6a.042.042,0,0,0,.044,0,.225.225,0,0,1,.162-.035.14.14,0,0,1,.085.089.041.041,0,0,0,.025.023Zm.459-.349-.441.251a.2.2,0,0,0-.117-.095.292.292,0,0,0-.207.033c-.242-.143-2.5-1.481-2.693-1.591l-.029-.015.273-.163,1.5.863a.041.041,0,0,0,.041,0l1.208-.7v1.119a.041.041,0,0,0,.021.036Z" transform="translate(-114.451 -292.856)"/></g><path class="a" d="M117.869,295.041l.541-.308-.512-.3v-1.19l-1.27.733-1.516-.875-.406.243a.137.137,0,0,1,.142.018c.2.116,2.713,1.6,2.713,1.6S117.778,294.825,117.869,295.041Z" transform="translate(-94.329 -274.51)"/><g transform="translate(23.065 20.183)"><path d="M109.565,303.319s-.434.186-.434,1.305l1.891-1.084-.915-.529Z" transform="translate(-109.09 -302.97)"/><path d="M108.922,304.456a.039.039,0,0,0,.02-.005l1.891-1.084a.041.041,0,0,0,0-.071l-.915-.529a.041.041,0,0,0-.041,0l-.539.307c-.04.019-.457.239-.457,1.342a.041.041,0,0,0,.02.036A.04.04,0,0,0,108.922,304.456Zm1.809-1.126-1.767,1.013c.017-1.009.405-1.195.409-1.2l0,0,.521-.3Z" transform="translate(-108.881 -302.76)"/></g><g transform="translate(23.408 20.557)"><g transform="translate(0.257)"><path class="b" d="M102.479,305.748l1.447,2.421s.458-.268.638-.368a.7.7,0,0,0,.3-.65,2.206,2.206,0,0,0-1-1.729.676.676,0,0,0-.746-.044Z" transform="translate(-102.438 -305.246)"/><path d="M103.717,308a.041.041,0,0,0,.021-.006s.46-.269.637-.367a.735.735,0,0,0,.32-.686,2.255,2.255,0,0,0-1.019-1.764.718.718,0,0,0-.79-.042l-.638.367a.041.041,0,0,0-.015.057l1.447,2.421A.041.041,0,0,0,103.717,308Zm-.506-2.882a.865.865,0,0,1,.424.13,2.163,2.163,0,0,1,.977,1.693.658.658,0,0,1-.278.614c-.149.083-.493.283-.6.348l-1.405-2.351.6-.348A.47.47,0,0,1,103.212,305.121Z" transform="translate(-102.229 -305.039)"/></g><g transform="translate(0.404 0.893)"><path d="M108.861,311.148a1.313,1.313,0,0,0,.594,1.029c.328.19.594.036.594-.343a1.313,1.313,0,0,0-.594-1.029C109.127,310.616,108.861,310.769,108.861,311.148Z" transform="translate(-108.82 -310.683)"/><path d="M109.512,312.089a.347.347,0,0,0,.175-.045.457.457,0,0,0,.195-.42,1.36,1.36,0,0,0-.615-1.065.4.4,0,0,0-.656.379,1.361,1.361,0,0,0,.615,1.065A.581.581,0,0,0,109.512,312.089Zm-.531-1.535a.5.5,0,0,1,.245.076,1.269,1.269,0,0,1,.574.993.322.322,0,0,1-.533.308,1.27,1.27,0,0,1-.574-.994.379.379,0,0,1,.153-.349A.264.264,0,0,1,108.981,310.554Z" transform="translate(-108.611 -310.472)"/></g><g transform="translate(0.554 0.767)"><path class="c" d="M107.948,310.383a1.313,1.313,0,0,0,.594,1.029c.328.189.594.036.594-.343a1.314,1.314,0,0,0-.594-1.029C108.214,309.85,107.948,310,107.948,310.383Z" transform="translate(-107.907 -309.917)"/><path d="M108.6,311.324a.348.348,0,0,0,.175-.045.456.456,0,0,0,.195-.42,1.362,1.362,0,0,0-.615-1.065.4.4,0,0,0-.656.379,1.361,1.361,0,0,0,.615,1.065A.583.583,0,0,0,108.6,311.324Zm-.531-1.535a.5.5,0,0,1,.245.076,1.27,1.27,0,0,1,.574.994.322.322,0,0,1-.533.307,1.269,1.269,0,0,1-.574-.994.379.379,0,0,1,.153-.349A.265.265,0,0,1,108.068,309.789Z" transform="translate(-107.698 -309.707)"/></g><g transform="translate(0 0.371)"><path d="M107.4,307.688a2.206,2.206,0,0,1,1,1.728c0,.637-.447.894-1,.576a2.206,2.206,0,0,1-1-1.729C106.4,307.627,106.851,307.369,107.4,307.688Zm0,1.838c.328.19.594.036.594-.343a1.313,1.313,0,0,0-.594-1.029c-.328-.189-.594-.036-.594.343A1.313,1.313,0,0,0,107.4,309.526Z" transform="translate(-106.363 -307.51)"/><path d="M107.639,309.958a.554.554,0,0,0,.28-.072.74.74,0,0,0,.313-.682,2.254,2.254,0,0,0-1.019-1.764.648.648,0,0,0-1.06.612,2.255,2.255,0,0,0,1.019,1.764A.949.949,0,0,0,107.639,309.958Zm-.891-2.578a.866.866,0,0,1,.425.131h0a2.163,2.163,0,0,1,.977,1.693.568.568,0,0,1-.936.541,2.164,2.164,0,0,1-.977-1.693.663.663,0,0,1,.272-.61A.473.473,0,0,1,106.747,307.38Zm.711,2.056a.346.346,0,0,0,.175-.045.457.457,0,0,0,.195-.42,1.361,1.361,0,0,0-.615-1.065.4.4,0,0,0-.656.379,1.361,1.361,0,0,0,.615,1.065h0A.579.579,0,0,0,107.459,309.437Zm-.531-1.535a.5.5,0,0,1,.245.076,1.269,1.269,0,0,1,.574.993.322.322,0,0,1-.533.308,1.27,1.27,0,0,1-.574-.994.379.379,0,0,1,.153-.349A.264.264,0,0,1,106.928,307.9Z" transform="translate(-106.154 -307.298)"/></g><path d="M110.4,313.267a.421.421,0,0,0,.19.33c.105.061.19.012.19-.11a.421.421,0,0,0-.19-.33C110.49,313.1,110.4,313.146,110.4,313.267Z" transform="translate(-109.406 -311.801)"/></g><g transform="translate(22.26 10.978)"><path class="e" d="M103.154,253.01l-4.4,2.541v-6l4.4-2.541Z" transform="translate(-98.71 -246.97)"/><path d="M98.542,255.383a.041.041,0,0,0,.021-.005l4.4-2.541a.041.041,0,0,0,.021-.036v-6a.041.041,0,0,0-.021-.036.041.041,0,0,0-.041,0l-4.4,2.541a.041.041,0,0,0-.021.036v6a.041.041,0,0,0,.041.041Zm4.362-2.606-4.32,2.494v-5.9l4.32-2.494Z" transform="translate(-98.501 -246.76)"/></g><path class="a" d="M103.154,265.121l-4.4,2.541v-3.617l4.4-2.541Z" transform="translate(-76.45 -248.103)"/><g transform="translate(3.253 0)"><path class="f" d="M103.159,180.215l-4.408,2.544,19,10.976,4.408-2.544Z" transform="translate(-98.71 -180.174)"/><path d="M117.544,193.566a.042.042,0,0,0,.021-.005l4.408-2.544a.041.041,0,0,0,0-.071l-19-10.976a.041.041,0,0,0-.041,0l-4.408,2.544a.041.041,0,0,0,0,.071l19,10.976A.041.041,0,0,0,117.544,193.566Zm4.326-2.585-4.326,2.5L98.624,182.549l4.326-2.5Z" transform="translate(-98.501 -179.964)"/><path class="g" d="M125.538,201.6l19.007,10.974v-5.91l-19.007-10.976Z" transform="translate(-125.497 -193.106)"/></g><g transform="translate(23.529 14.344)"><path class="h" d="M97.9,269.052l.006,0c.538.331,1,3.37,1,4.224v3.28l-1.049-.606a.547.547,0,0,1-.265-.361,2.5,2.5,0,0,0-.9-1.695l-1.5-.869v-5.543Z" transform="translate(-95.141 -267.445)"/><path d="M98.693,276.391a.04.04,0,0,0,.021-.005.041.041,0,0,0,.021-.036v-3.279c0-.89-.459-3.914-1.021-4.259l-.007,0-2.713-1.566a.041.041,0,0,0-.041,0,.041.041,0,0,0-.021.035v5.544a.041.041,0,0,0,.021.036l1.5.869a2.187,2.187,0,0,1,.879,1.655l0,.011a.585.585,0,0,0,.286.39l1.048.6A.04.04,0,0,0,98.693,276.391Zm-1.029-7.514.007.005c.517.318.981,3.361.981,4.188v3.208l-.987-.57a.51.51,0,0,1-.245-.332l0-.011a2.262,2.262,0,0,0-.919-1.713l-1.484-.857v-5.449Z" transform="translate(-94.932 -267.235)"/></g><g transform="translate(23.529 12.191)"><path class="i" d="M75.128,258.11l-.006,0-2.713-1.566,3.743-2.153,2.713,1.566c.54.312,1.007,3.371,1.007,4.228v3.28l-.994.572-.071-.16-1.6.923-.072.242-1,.576v-3.28C76.129,261.48,75.666,258.44,75.128,258.11Z" transform="translate(-72.368 -254.345)"/><path d="M75.92,265.444a.04.04,0,0,0,.021-.005l1-.576a.041.041,0,0,0,.019-.024l.067-.227,1.551-.892.053.119a.041.041,0,0,0,.025.022.04.04,0,0,0,.033,0l.994-.572a.041.041,0,0,0,.021-.035v-3.28c0-.873-.474-3.944-1.027-4.264l-2.713-1.566a.041.041,0,0,0-.041,0l-3.743,2.153a.041.041,0,0,0,0,.071l2.713,1.566.026-.031-.022.035c.518.318.981,3.361.981,4.189V265.4a.041.041,0,0,0,.021.036A.04.04,0,0,0,75.92,265.444Zm.966-.644-.925.532v-3.208c0-.889-.459-3.909-1.019-4.258l-.008-.005-2.652-1.531,3.661-2.106,2.693,1.555c.52.3.986,3.356.986,4.192v3.256l-.934.537-.053-.118a.041.041,0,0,0-.058-.019l-1.6.923a.041.041,0,0,0-.019.024Z" transform="translate(-72.159 -254.135)"/></g><g transform="translate(24.039 11.674)"><path class="i" d="M94.041,252.8l2.715-1.559.683.394L94.724,253.2Z" transform="translate(-94 -251.203)"/><path d="M94.515,253.029a.041.041,0,0,0,.02-.005l2.715-1.559a.041.041,0,0,0,0-.071L96.567,251a.04.04,0,0,0-.041,0l-2.715,1.559a.041.041,0,0,0,0,.071l.683.394A.041.041,0,0,0,94.515,253.029Zm2.632-1.6-2.632,1.512-.6-.347,2.632-1.512Z" transform="translate(-93.791 -250.993)"/></g><g transform="translate(24.722 12.069)"><path class="i" d="M89.475,253.642a7.867,7.867,0,0,1,1.2,1.507l-1.055.606a.383.383,0,0,0-.259-.092.394.394,0,0,0-.392.465l-1.009.58a7.867,7.867,0,0,0-1.2-1.507Z" transform="translate(-86.719 -253.601)"/><path d="M86.531,254.957l2.715-1.559a.041.041,0,0,1,.041,0,7.689,7.689,0,0,1,1.211,1.52.041.041,0,0,1-.014.058l-.607.347-.079-.05.607-.347a7.773,7.773,0,0,0-1.139-1.445L86.629,255a8.32,8.32,0,0,1,1.132,1.449l.608-.349.034.075-.636.365a.041.041,0,0,1-.055-.013,7.9,7.9,0,0,0-1.183-1.493.041.041,0,0,1,0-.071Z" transform="translate(-86.51 -253.392)"/></g><g transform="translate(26.151 13.385)"><path class="i" d="M91.95,261.655c.189.242.378.537.378.537l-.463.266a.607.607,0,0,0-.254-.068.416.416,0,0,0-.411.411.356.356,0,0,0,0,.037l-.374.215s-.188-.292-.376-.534Z" transform="translate(-90.412 -261.614)"/><path d="M90.224,262.274l1.5-.864a.04.04,0,0,1,.053.01c.188.24.379.537.38.54a.041.041,0,0,1-.014.058l-.079-.05c-.054-.082-.191-.287-.331-.469l-1.426.823c.141.184.277.389.328.467l.044.072-.052.029a.108.108,0,0,1-.04-.024s-.189-.293-.374-.531a.041.041,0,0,1,.012-.061Z" transform="translate(-90.203 -261.405)"/></g><path class="j" d="M91.38,261.655c.189.242.378.537.378.537H90.453Z" transform="translate(-63.691 -248.228)"/><g transform="translate(23.884 13.234)"><path class="i" d="M103.277,261.212a.75.75,0,0,1,.155-.481l.683.394a7.867,7.867,0,0,1,1.2,1.507l-1.879-1.085v-.226Z" transform="translate(-103.236 -260.69)"/><path d="M105.1,262.464a.041.041,0,0,0,.035-.063,7.689,7.689,0,0,0-1.211-1.52l-.683-.394a.041.041,0,0,0-.051.008.784.784,0,0,0-.166.509.041.041,0,0,0,.018.034l.138.1v.2a.041.041,0,0,0,.021.036l1.879,1.085A.042.042,0,0,0,105.1,262.464Zm-1.869-1.888.651.376a6.522,6.522,0,0,1,1.088,1.349l-1.709-.987v-.2a.042.042,0,0,0-.018-.034l-.138-.1A.746.746,0,0,1,103.235,260.576Z" transform="translate(-103.028 -260.481)"/></g><g transform="translate(27.323 13.386)"><path class="c" d="M90.453,261.843l.7.349c-.161-.253-.378-.537-.378-.537Z" transform="translate(-90.412 -261.614)"/><path d="M90.947,262.024a.041.041,0,0,0,.035-.063c-.16-.252-.378-.537-.38-.54a.041.041,0,0,0-.053-.01l-.325.187a.042.042,0,0,0-.021.037.041.041,0,0,0,.023.035l.7.349A.043.043,0,0,0,90.947,262.024Zm-.389-.524c.047.062.162.216.271.379l-.5-.247Z" transform="translate(-90.203 -261.406)"/></g><g transform="translate(26.248 13.757)"><path class="h" d="M72.409,266.073l3.737-2.157a.614.614,0,0,1,.2.236h0a12.9,12.9,0,0,1,.808,3.992v3.28l-.995.572-.071-.16-1.6.923-.072.242-1,.576V270.3C73.41,269.444,72.947,266.4,72.409,266.073Z" transform="translate(-72.368 -263.875)"/><path d="M73.2,273.408a.04.04,0,0,0,.021-.005l1-.576a.042.042,0,0,0,.019-.024l.067-.227,1.551-.892.052.118a.041.041,0,0,0,.058.019l.995-.572a.041.041,0,0,0,.021-.036v-3.28a12.889,12.889,0,0,0-.813-4.012.644.644,0,0,0-.214-.252.041.041,0,0,0-.041,0l-3.737,2.157a.041.041,0,0,0,0,.071c.518.318.981,3.361.981,4.189v3.279a.041.041,0,0,0,.021.036A.04.04,0,0,0,73.2,273.408Zm.966-.644-.925.532v-3.208c0-.862-.431-3.727-.968-4.219l3.662-2.114a.643.643,0,0,1,.164.208,12.766,12.766,0,0,1,.8,3.972v3.256l-.935.538-.052-.118a.041.041,0,0,0-.025-.022.041.041,0,0,0-.033,0l-1.6.923a.041.041,0,0,0-.019.024Z" transform="translate(-72.159 -263.665)"/></g><g transform="translate(27.088 15.176)"><g transform="translate(0)"><path d="M77.826,272.549a13.059,13.059,0,0,1,.408,2.293l-.073.06,0,0a6.444,6.444,0,0,1-1.276.886,12.387,12.387,0,0,1-1.673.82l-.1.019a19.91,19.91,0,0,0-.378-2.172c-.009-.035-.017-.07-.026-.1Z" transform="translate(-74.668 -272.508)"/><path d="M74.9,276.461h.008l.1-.018a12.377,12.377,0,0,0,1.686-.825,6.435,6.435,0,0,0,1.285-.892l.072-.059a.041.041,0,0,0,.015-.032,12.862,12.862,0,0,0-.41-2.3.041.041,0,0,0-.024-.027.042.042,0,0,0-.036,0l-3.117,1.8a.041.041,0,0,0-.019.046l.026.1a19.985,19.985,0,0,1,.377,2.166.041.041,0,0,0,.016.028A.04.04,0,0,0,74.9,276.461Zm3.08-1.847-.058.048a6.527,6.527,0,0,1-1.272.883,12.487,12.487,0,0,1-1.667.817l-.048.009a19.845,19.845,0,0,0-.374-2.133l-.018-.074,3.044-1.761A12.682,12.682,0,0,1,77.984,274.615Z" transform="translate(-74.459 -272.3)"/></g></g><g transform="translate(27.247 19.666)"><path d="M72.409,302.027l3.745-2.16v.3l-.839.484v.76l-2.008,1.156-.055-.725-.841.486Z" transform="translate(-72.368 -299.826)"/><path d="M73.1,302.4a.04.04,0,0,0,.021-.005l2.008-1.156a.041.041,0,0,0,.021-.036v-.736l.819-.472a.042.042,0,0,0,.021-.036v-.3a.041.041,0,0,0-.021-.036.041.041,0,0,0-.041,0l-3.745,2.16a.041.041,0,0,0-.021.036v.3a.041.041,0,0,0,.021.035.041.041,0,0,0,.041,0l.785-.453.05.66a.041.041,0,0,0,.022.033A.04.04,0,0,0,73.1,302.4Zm1.967-1.221-1.931,1.112-.05-.66a.041.041,0,0,0-.062-.033l-.78.45v-.207l3.663-2.113v.207l-.819.472a.042.042,0,0,0-.021.036Z" transform="translate(-72.159 -299.616)"/></g><path class="j" d="M103.277,265.989l.51-.294,1.879,1.085h-1.017Z" transform="translate(-79.707 -251.604)"/><g transform="translate(24.314 15.315)"><g transform="translate(0)"><g transform="translate(0)"><path class="h" d="M98.551,274.66c-.2-.116-1.814-1.073-1.814-1.073V277.7s.486.3.9.536a2.646,2.646,0,0,1,.925,1.538.471.471,0,0,0,.228.31l.631.378V278.3C99.417,277.56,99.015,274.928,98.551,274.66Z" transform="translate(-96.696 -273.515)"/><path d="M99.249,280.169v-2.24c0-.661-.377-3.378-.887-3.672h0c-.2-.114-1.8-1.063-1.813-1.073l-.062-.037v4.21l.02.012s.491.3.9.537a2.642,2.642,0,0,1,.9,1.509.508.508,0,0,0,.249.34Zm-.928-5.841c.425.245.845,2.777.845,3.6v2.095l-.569-.34a.433.433,0,0,1-.208-.282,2.691,2.691,0,0,0-.945-1.567c-.359-.207-.781-.465-.875-.524v-4.019c.3.177,1.576.935,1.752,1.036Z" transform="translate(-96.487 -273.147)"/></g></g><g transform="translate(0.273 0.747)"><g transform="translate(0)"><path d="M99.4,277.964l1.27.757a.742.742,0,0,1,.233.318l.333,1.347c0,.075-.04.117-.1.112a.151.151,0,0,1-.022-.007.147.147,0,0,1-.04-.014l-.427-.247a.329.329,0,0,1-.118-.13l-.183-.347a.329.329,0,0,0-.118-.13l-.831-.48a.26.26,0,0,1-.03-.024.35.35,0,0,1-.128-.249v-.816C99.244,277.955,99.314,277.914,99.4,277.964Z" transform="translate(-99.203 -277.902)"/><path d="M100.942,280.332a.119.119,0,0,0,.083-.031.161.161,0,0,0,.046-.122l-.334-1.357a.774.774,0,0,0-.252-.344l-1.27-.757h0a.137.137,0,0,0-.219.127v.816a.391.391,0,0,0,.143.281l.009.007a.16.16,0,0,0,.027.021l.831.48a.286.286,0,0,1,.1.114l.183.347a.372.372,0,0,0,.134.147l.427.247a.153.153,0,0,0,.043.016l.011,0a.08.08,0,0,0,.024.007Zm-1.77-2.541,1.27.757a.719.719,0,0,1,.215.294l.333,1.346a.081.081,0,0,1-.021.052.04.04,0,0,1-.032.009l-.015-.006a.1.1,0,0,1-.029-.01l-.427-.247a.286.286,0,0,1-.1-.114l-.183-.347a.374.374,0,0,0-.134-.147l-.831-.48-.013-.011-.012-.01a.308.308,0,0,1-.112-.217v-.816a.057.057,0,0,1,.1-.056Z" transform="translate(-98.994 -277.693)"/></g></g></g><g transform="translate(24.697 18.039)"><path d="M109.551,290.055h0l.1.088v.353l-.207-.12v-.41Z" transform="translate(-109.407 -289.925)"/><path d="M109.446,290.329a.04.04,0,0,0,.021-.005.042.042,0,0,0,.021-.036v-.353a.041.041,0,0,0-.014-.031l-.207-.177a.041.041,0,0,0-.044-.006.041.041,0,0,0-.024.037v.41a.041.041,0,0,0,.021.036l.207.12A.04.04,0,0,0,109.446,290.329Zm-.041-.375v.263l-.125-.072v-.3Z" transform="translate(-109.198 -289.717)"/></g><path class="k" d="M95.709,319.553l-.22-.123v-.15l.22.123Z" transform="translate(-68.47 -296.383)"/><g transform="translate(26.979 22.162)"><path class="b" d="M89.959,315.6l.945-.545v.273l-.945.545-.22-.123v-.273Z" transform="translate(-89.698 -315.013)"/><path d="M89.75,315.7a.04.04,0,0,0,.021-.005l.945-.545a.041.041,0,0,0,.021-.036v-.272a.042.042,0,0,0-.021-.036.041.041,0,0,0-.041,0l-.925.534-.2-.112a.041.041,0,0,0-.061.036v.273a.041.041,0,0,0,.021.036l.22.123A.04.04,0,0,0,89.75,315.7Zm.9-.61-.9.522-.178-.1v-.178l.159.089a.041.041,0,0,0,.041,0l.883-.51Z" transform="translate(-89.489 -314.803)"/></g><path class="k" d="M89.739,317.407l.945-.545v-.15l-.945.545Z" transform="translate(-62.5 -294.236)"/><g transform="translate(26.979 21.643)"><path class="c" d="M89.845,312.291l.163.091.842-.485.055.032v.486l-.945.545-.22-.123v-.486Z" transform="translate(-89.698 -311.856)"/><path d="M89.75,312.793a.042.042,0,0,0,.021-.005l.945-.545a.042.042,0,0,0,.021-.036v-.487a.041.041,0,0,0-.02-.035l-.055-.032a.041.041,0,0,0-.041,0l-.821.474-.142-.08a.04.04,0,0,0-.04,0l-.105.06a.041.041,0,0,0-.021.036v.486a.041.041,0,0,0,.021.036l.22.123A.042.042,0,0,0,89.75,312.793Zm.9-.61-.9.522-.178-.1v-.439l.064-.037.142.08a.041.041,0,0,0,.041,0l.821-.474.014.008Z" transform="translate(-89.489 -311.647)"/></g><g transform="translate(30.15 19.85)"><path class="k" d="M72.4,307.325l.842-.487v-.15l-.786.455-.057-.029Z" transform="translate(-72.363 -305.709)"/><g transform="translate(0.058 0.576)"><path class="b" d="M71.429,305.034l.945-.545v.273l-.945.545Z" transform="translate(-71.388 -304.448)"/><path d="M71.22,305.139a.042.042,0,0,0,.021-.005l.945-.545a.041.041,0,0,0,.021-.036v-.273a.041.041,0,0,0-.062-.036l-.945.545a.041.041,0,0,0-.021.036v.273a.041.041,0,0,0,.041.041Zm.9-.61-.863.5v-.178l.863-.5Z" transform="translate(-71.179 -304.239)"/></g><g transform="translate(0)"><path class="c" d="M71.429,302.346l0-.76.839-.484v-.119l.161.09h0v.486l-.945.545v.273Z" transform="translate(-71.388 -300.943)"/><path d="M71.278,302.21a.041.041,0,0,0,.041-.041v-.249l.925-.533a.041.041,0,0,0,.021-.036v-.486a.041.041,0,0,0-.02-.035l-.006,0-.157-.087a.041.041,0,0,0-.061.036v.1l-.819.472a.042.042,0,0,0-.021.036l0,.76a.041.041,0,0,0,.022.036l.058.031A.04.04,0,0,0,71.278,302.21Zm.9-.882-.92.53V301.4l.819-.472a.041.041,0,0,0,.021-.036v-.049l.079.044Z" transform="translate(-71.179 -300.734)"/></g></g><g transform="translate(3.253 2.544)"><g transform="translate(0)"><path class="h" d="M144.545,212.666l-19.007-10.974v-6l19.007,10.976Z" transform="translate(-125.497 -195.65)"/><path d="M144.336,212.5a.041.041,0,0,0,.041-.041v-6a.041.041,0,0,0-.021-.036L125.35,195.447a.041.041,0,0,0-.041,0,.041.041,0,0,0-.021.035v6a.041.041,0,0,0,.021.036l19.007,10.974A.042.042,0,0,0,144.336,212.5Zm-.041-6.016v5.9L125.37,201.46v-5.906Z" transform="translate(-125.288 -195.441)"/></g><g transform="translate(0.493 0.854)"><path class="h" d="M146.558,211.294l-18.021-10.407v4.863l18.021,10.4Z" transform="translate(-128.497 -200.847)"/><path d="M146.35,215.986a.04.04,0,0,0,.021-.005.041.041,0,0,0,.021-.036v-4.86a.041.041,0,0,0-.021-.036L128.35,200.643a.041.041,0,0,0-.041,0,.041.041,0,0,0-.021.036v4.863a.042.042,0,0,0,.021.036l18.021,10.4A.04.04,0,0,0,146.35,215.986Zm-.041-4.877v4.765L128.37,205.517v-4.768Z" transform="translate(-128.288 -200.637)"/></g></g></g></svg>